<svg xmlns="http://www.w3.org/2000/svg" viewBox="0 0 520 520">
<g stroke="#161616" stroke-linecap="round" stroke-linejoin="round">
  <path d="M110 487c14-115 59-167 153-167 95 0 140 52 155 167" fill="#101010" stroke-width="8"/>
  <path d="M169 341l38 67 54-48 56 48 39-67" fill="#1b1b1b" stroke="#4a4a4a" stroke-width="7"/>
  <path d="M229 317h64v63c-12 20-52 21-64 0z" fill="#dba77b" stroke-width="6"/>
  <ellipse cx="262" cy="232" rx="111" ry="116" fill="#efbd92" stroke-width="8"/>
  <ellipse cx="151" cy="238" rx="24" ry="35" fill="#efbd92" stroke-width="7"/>
  <ellipse cx="374" cy="238" rx="24" ry="35" fill="#efbd92" stroke-width="7"/>
  <path d="M176 189c6-62 41-96 94-96 53 0 86 31 95 90-40-14-70-37-92-66-22 30-51 54-97 72z" fill="#5b3a28" stroke-width="7"/>
  <path d="M130 149c19-80 75-121 147-121 76 0 132 43 145 121-92-30-190-31-292 0z" fill="#111" stroke-width="8"/>
  <rect x="171" y="201" width="81" height="57" rx="20" fill="none" stroke="#525c60" stroke-width="8"/>
  <rect x="269" y="201" width="81" height="57" rx="20" fill="none" stroke="#525c60" stroke-width="8"/>
  <path d="M252 221h17" fill="none" stroke="#525c60" stroke-width="7"/>
  <path d="M189 226c18 10 32 10 48 1M286 227c18 10 32 10 48 1" fill="none" stroke-width="6"/>
  <path d="M253 248c-4 12-2 19 12 21" fill="none" stroke="#b8795f" stroke-width="5"/>
  <path d="M211 284c28 23 70 23 101 0-13 38-83 41-101 0z" fill="#fff" stroke-width="6"/>
  <path d="M160 338c-35-4-66-17-83-39-15-20-24-56-6-67 15-10 33 13 44 34-14-33-19-58-3-64 17-7 28 29 39 57l36 34" fill="#efbd92" stroke-width="8"/>
  <path d="M115 266c26 12 52 31 73 55" fill="none" stroke-width="7"/>
  <path d="M310 340l-49 51-52-51M261 391v71" fill="none" stroke="#777" stroke-width="7"/>
</g></svg>